<svg width="16" height="16" viewBox="0 0 16 16" fill="none" xmlns="http://www.w3.org/2000/svg">
<path d="M0 0.52093C0 0.233228 0.233228 0 0.52093 0H15.4791C15.7668 0 16 0.233228 16 0.52093V15.4791C16 15.7668 15.7668 16 15.4791 16H0.52093C0.233228 16 0 15.7668 0 15.4791V0.52093Z" fill="url(#paint0_linear_409_922)"/>
<path d="M9.4799 8.39834C9.4799 8.27022 9.58183 8.16636 9.70758 8.16636H11.6049C11.7306 8.16636 11.8326 8.27022 11.8326 8.39834V10.3315C11.8326 10.4596 11.7306 10.5635 11.6049 10.5635H9.70758C9.58183 10.5635 9.4799 10.4596 9.4799 10.3315V8.39834Z" fill="white"/>
<path d="M9.4799 2.98547C9.4799 2.85735 9.58183 2.75349 9.70758 2.75349H11.6049C11.7306 2.75349 11.8326 2.85735 11.8326 2.98547V4.91864C11.8326 5.04675 11.7306 5.15062 11.6049 5.15062H9.70758C9.58183 5.15062 9.4799 5.04675 9.4799 4.91864V2.98547Z" fill="white"/>
<path d="M6.82367 5.6919C6.82367 5.56378 6.9256 5.45992 7.05135 5.45992H8.94865C9.0744 5.45992 9.17633 5.56378 9.17633 5.6919V7.62507C9.17633 7.75319 9.0744 7.85705 8.94865 7.85705H7.05135C6.9256 7.85705 6.82367 7.75319 6.82367 7.62507V5.6919Z" fill="white"/>
<path d="M4.16744 8.39834C4.16744 8.27022 4.26938 8.16636 4.39512 8.16636H6.29242C6.41817 8.16636 6.5201 8.27022 6.5201 8.39834V10.3315C6.5201 10.4596 6.41817 10.5635 6.29242 10.5635H4.39512C4.26938 10.5635 4.16744 10.4596 4.16744 10.3315V8.39834Z" fill="white"/>
<path d="M6.82367 11.1048C6.82367 10.9767 6.9256 10.8728 7.05135 10.8728H8.94865C9.0744 10.8728 9.17633 10.9767 9.17633 11.1048V13.0379C9.17633 13.1661 9.0744 13.2699 8.94865 13.2699H7.05135C6.9256 13.2699 6.82367 13.1661 6.82367 13.0379V11.1048Z" fill="white"/>
<path d="M11.8326 6.65849C11.8326 7.32044 11.3059 7.85705 10.6562 7.85705C10.0066 7.85705 9.4799 7.32044 9.4799 6.65849C9.4799 5.99654 10.0066 5.45992 10.6562 5.45992C11.3059 5.45992 11.8326 5.99654 11.8326 6.65849Z" fill="white"/>
<path d="M11.8326 12.0714C11.8326 12.7333 11.3059 13.2699 10.6562 13.2699C10.0066 13.2699 9.4799 12.7333 9.4799 12.0714C9.4799 11.4094 10.0066 10.8728 10.6562 10.8728C11.3059 10.8728 11.8326 11.4094 11.8326 12.0714Z" fill="white"/>
<path d="M4.27477 7.59304L6.26099 5.56928C6.35661 5.47185 6.5201 5.54085 6.5201 5.67864V7.7024C6.5201 7.78781 6.45215 7.85705 6.36832 7.85705H4.3821C4.24687 7.85705 4.17915 7.69047 4.27477 7.59304Z" fill="white"/>
<path d="M4.27477 11.1368L6.26099 13.1606C6.35661 13.258 6.5201 13.189 6.5201 13.0512V11.0274C6.5201 10.942 6.45215 10.8728 6.36832 10.8728H4.3821C4.24687 10.8728 4.17915 11.0394 4.27477 11.1368Z" fill="white"/>
<defs>
<linearGradient id="paint0_linear_409_922" x1="12.8446" y1="16" x2="3.8247" y2="-5.20354e-07" gradientUnits="userSpaceOnUse">
<stop stop-color="#261E72"/>
<stop offset="1" stop-color="#05AA6D"/>
</linearGradient>
</defs>
</svg>
