<svg width="359" height="100" viewBox="0 0 359 100" fill="none" xmlns="http://www.w3.org/2000/svg">
<path d="M0 3.25581C0 1.45768 1.45768 0 3.25581 0H96.7442C98.5423 0 100 1.45768 100 3.25581V96.7442C100 98.5423 98.5423 100 96.7442 100H3.25581C1.45768 100 0 98.5423 0 96.7442V3.25581Z" fill="url(#paint0_linear_409_935)"/>
<path d="M59.2494 52.4896C59.2494 51.6889 59.8865 51.0397 60.6723 51.0397H72.5305C73.3164 51.0397 73.9535 51.6889 73.9535 52.4896V64.5719C73.9535 65.3726 73.3164 66.0218 72.5305 66.0218H60.6723C59.8865 66.0218 59.2494 65.3726 59.2494 64.5719V52.4896Z" fill="white"/>
<path d="M59.2494 18.6592C59.2494 17.8584 59.8865 17.2093 60.6723 17.2093H72.5305C73.3164 17.2093 73.9535 17.8584 73.9535 18.6592V30.7415C73.9535 31.5422 73.3164 32.1914 72.5305 32.1914H60.6723C59.8865 32.1914 59.2494 31.5422 59.2494 30.7415V18.6592Z" fill="white"/>
<path d="M42.6479 35.5744C42.6479 34.7737 43.285 34.1245 44.0709 34.1245H55.9291C56.715 34.1245 57.3521 34.7737 57.3521 35.5744V47.6567C57.3521 48.4574 56.715 49.1066 55.9291 49.1066H44.0709C43.285 49.1066 42.6479 48.4574 42.6479 47.6567V35.5744Z" fill="white"/>
<path d="M26.0465 52.4896C26.0465 51.6889 26.6836 51.0397 27.4695 51.0397H39.3277C40.1135 51.0397 40.7506 51.6889 40.7506 52.4896V64.5719C40.7506 65.3726 40.1135 66.0218 39.3277 66.0218H27.4695C26.6836 66.0218 26.0465 65.3726 26.0465 64.5719V52.4896Z" fill="white"/>
<path d="M42.6479 69.4048C42.6479 68.6041 43.285 67.955 44.0709 67.955H55.9291C56.715 67.955 57.3521 68.6041 57.3521 69.4048V81.4871C57.3521 82.2879 56.715 82.937 55.9291 82.937H44.0709C43.285 82.937 42.6479 82.2879 42.6479 81.4871V69.4048Z" fill="white"/>
<path d="M73.9535 41.6155C73.9535 45.7527 70.6619 49.1066 66.6014 49.1066C62.541 49.1066 59.2494 45.7527 59.2494 41.6155C59.2494 37.4784 62.541 34.1245 66.6014 34.1245C70.6619 34.1245 73.9535 37.4784 73.9535 41.6155Z" fill="white"/>
<path d="M73.9535 75.446C73.9535 79.5831 70.6619 82.937 66.6014 82.937C62.541 82.937 59.2494 79.5831 59.2494 75.446C59.2494 71.3088 62.541 67.955 66.6014 67.955C70.6619 67.955 73.9535 71.3088 73.9535 75.446Z" fill="white"/>
<path d="M26.7173 47.4565L39.1312 34.808C39.7288 34.1991 40.7506 34.6303 40.7506 35.4915V48.14C40.7506 48.6738 40.3259 49.1066 39.802 49.1066H27.3881C26.543 49.1066 26.1197 48.0654 26.7173 47.4565Z" fill="white"/>
<path d="M26.7173 69.605L39.1312 82.2535C39.7288 82.8624 40.7506 82.4312 40.7506 81.57V68.9215C40.7506 68.3877 40.3259 67.955 39.802 67.955H27.3881C26.543 67.955 26.1197 68.9961 26.7173 69.605Z" fill="white"/>
<path id="logotype" d="M135.016 60.864C135.016 63.888 135.568 66.36 136.672 68.28C137.824 70.2 139.648 71.16 142.144 71.16C142.864 71.16 143.536 71.136 144.16 71.088C144.784 71.04 145.432 70.968 146.104 70.872V52.44C145.432 52.056 144.664 51.744 143.8 51.504C142.936 51.216 142.024 51.072 141.064 51.072C138.952 51.072 137.416 51.912 136.456 53.592C135.496 55.272 135.016 57.696 135.016 60.864ZM154.96 76.992C153.328 77.52 151.336 77.952 148.984 78.288C146.632 78.624 144.328 78.792 142.072 78.792C136.792 78.792 132.784 77.232 130.048 74.112C127.36 70.992 126.016 66.72 126.016 61.296C126.016 55.776 127.144 51.432 129.4 48.264C131.704 45.048 135.088 43.44 139.552 43.44C140.752 43.44 141.928 43.584 143.08 43.872C144.232 44.112 145.24 44.472 146.104 44.952V29.544L154.96 28.032V76.992ZM187.216 76.848C185.584 77.28 183.592 77.712 181.24 78.144C178.936 78.576 176.416 78.792 173.68 78.792C170.896 78.792 168.616 78.408 166.84 77.64C165.064 76.872 163.648 75.792 162.592 74.4C161.584 72.96 160.888 71.28 160.504 69.36C160.12 67.44 159.928 65.328 159.928 63.024V44.16H168.784V61.872C168.784 64.992 169.144 67.32 169.864 68.856C170.632 70.344 172.096 71.088 174.256 71.088C175.6 71.088 176.944 70.968 178.288 70.728V44.16H187.216V76.848ZM223.504 61.008C223.504 63.696 223.12 66.144 222.352 68.352C221.584 70.512 220.504 72.384 219.112 73.968C217.72 75.552 216.04 76.776 214.072 77.64C212.152 78.504 209.992 78.936 207.592 78.936C205.192 78.936 203.008 78.504 201.04 77.64C199.12 76.776 197.44 75.552 196 73.968C194.608 72.384 193.528 70.512 192.76 68.352C191.992 66.144 191.608 63.696 191.608 61.008C191.608 58.368 191.992 55.968 192.76 53.808C193.576 51.6 194.68 49.728 196.072 48.192C197.512 46.608 199.216 45.408 201.184 44.592C203.152 43.728 205.288 43.296 207.592 43.296C209.944 43.296 212.08 43.728 214 44.592C215.968 45.408 217.648 46.608 219.04 48.192C220.48 49.728 221.584 51.6 222.352 53.808C223.12 55.968 223.504 58.368 223.504 61.008ZM200.608 61.08C200.608 64.104 201.136 66.552 202.192 68.424C203.296 70.296 205.048 71.232 207.448 71.232C209.752 71.232 211.48 70.296 212.632 68.424C213.832 66.552 214.432 64.104 214.432 61.08C214.432 58.056 213.88 55.632 212.776 53.808C211.72 51.936 209.992 51 207.592 51C205.288 51 203.536 51.936 202.336 53.808C201.184 55.632 200.608 58.056 200.608 61.08ZM231.496 51.504H223.792V44.16H231.496V35.664L240.352 34.224V44.16H254.536V51.504H240.352V65.184C240.352 66.432 240.472 67.44 240.712 68.208C240.952 68.976 241.288 69.576 241.72 70.008C242.152 70.44 242.68 70.728 243.304 70.872C243.928 71.016 244.624 71.088 245.392 71.088C246.208 71.088 246.952 71.064 247.624 71.016C248.344 70.968 249.016 70.896 249.64 70.8C250.312 70.656 250.984 70.464 251.656 70.224C252.376 69.984 253.144 69.672 253.96 69.288L255.184 76.92C253.552 77.592 251.776 78.072 249.856 78.36C247.984 78.648 246.16 78.792 244.384 78.792C242.32 78.792 240.496 78.624 238.912 78.288C237.328 77.952 235.984 77.304 234.88 76.344C233.776 75.384 232.936 74.04 232.36 72.312C231.784 70.536 231.496 68.232 231.496 65.4V51.504ZM289.024 61.008C289.024 63.696 288.64 66.144 287.872 68.352C287.104 70.512 286.024 72.384 284.632 73.968C283.24 75.552 281.56 76.776 279.592 77.64C277.672 78.504 275.512 78.936 273.112 78.936C270.712 78.936 268.528 78.504 266.56 77.64C264.64 76.776 262.96 75.552 261.52 73.968C260.128 72.384 259.048 70.512 258.28 68.352C257.512 66.144 257.128 63.696 257.128 61.008C257.128 58.368 257.512 55.968 258.28 53.808C259.096 51.6 260.2 49.728 261.592 48.192C263.032 46.608 264.736 45.408 266.704 44.592C268.672 43.728 270.808 43.296 273.112 43.296C275.464 43.296 277.6 43.728 279.52 44.592C281.488 45.408 283.168 46.608 284.56 48.192C286 49.728 287.104 51.6 287.872 53.808C288.64 55.968 289.024 58.368 289.024 61.008ZM266.128 61.08C266.128 64.104 266.656 66.552 267.712 68.424C268.816 70.296 270.568 71.232 272.968 71.232C275.272 71.232 277 70.296 278.152 68.424C279.352 66.552 279.952 64.104 279.952 61.08C279.952 58.056 279.4 55.632 278.296 53.808C277.24 51.936 275.512 51 273.112 51C270.808 51 269.056 51.936 267.856 53.808C266.704 55.632 266.128 58.056 266.128 61.08ZM293.416 45.24C295 44.808 296.944 44.4 299.248 44.016C301.6 43.632 304.144 43.44 306.88 43.44C309.568 43.44 311.8 43.824 313.576 44.592C315.352 45.312 316.744 46.368 317.752 47.76C318.808 49.104 319.552 50.736 319.984 52.656C320.416 54.528 320.632 56.616 320.632 58.92V78H311.776V60.072C311.776 56.904 311.416 54.624 310.696 53.232C309.976 51.84 308.512 51.144 306.304 51.144C305.632 51.144 304.96 51.168 304.288 51.216C303.664 51.264 302.992 51.336 302.272 51.432V78H293.416V45.24ZM324.952 61.368C324.952 58.392 325.408 55.776 326.32 53.52C327.232 51.264 328.432 49.392 329.92 47.904C331.408 46.368 333.112 45.216 335.032 44.448C336.952 43.68 338.92 43.296 340.936 43.296C345.928 43.296 349.72 44.784 352.312 47.76C354.904 50.688 356.2 54.984 356.2 60.648C356.2 61.224 356.176 61.824 356.128 62.448C356.128 63.072 356.104 63.576 356.056 63.96H334.096C334.096 66.168 335.008 67.92 336.832 69.216C338.656 70.464 341.008 71.088 343.888 71.088C345.664 71.088 347.344 70.896 348.928 70.512C350.56 70.128 351.928 69.744 353.032 69.36L354.256 76.92C352.72 77.448 351.088 77.88 349.36 78.216C347.632 78.6 345.688 78.792 343.528 78.792C340.648 78.792 338.056 78.432 335.752 77.712C333.496 76.944 331.552 75.84 329.92 74.4C328.336 72.912 327.112 71.088 326.248 68.928C325.384 66.768 324.952 64.248 324.952 61.368ZM347.632 57.84C347.632 56.928 347.512 56.064 347.272 55.248C347.032 54.384 346.648 53.616 346.12 52.944C345.592 52.272 344.92 51.744 344.104 51.36C343.288 50.928 342.28 50.712 341.08 50.712C339.928 50.712 338.92 50.904 338.056 51.288C337.24 51.672 336.544 52.2 335.968 52.872C335.44 53.544 335.008 54.312 334.672 55.176C334.384 56.04 334.192 56.928 334.096 57.84H347.632Z" fill="#131620"/>

  <defs>
    <linearGradient id="paint0_linear_409_935" x1="80.2789" y1="100" x2="23.9044" y2="-3.25221e-06" gradientUnits="userSpaceOnUse">
      <stop stop-color="#261E72"/>
      <stop offset="1" stop-color="#05AA6D"/>
    </linearGradient>
  </defs>

  <style>
    @media (prefers-color-scheme: dark) {
        #logotype { fill: #FFF }
    }
  </style>
</svg>
