<svg width="128" height="128" viewBox="0 0 128 128" fill="none" xmlns="http://www.w3.org/2000/svg">
<path d="M0 4.16744C0 1.86583 1.86583 0 4.16744 0H123.833C126.134 0 128 1.86583 128 4.16744V123.833C128 126.134 126.134 128 123.833 128H4.16744C1.86583 128 0 126.134 0 123.833V4.16744Z" fill="url(#paint0_linear_409_922)"/>
<path d="M75.8392 67.1867C75.8392 66.1617 76.6547 65.3309 77.6606 65.3309H92.839C93.845 65.3309 94.6605 66.1617 94.6605 67.1867V82.652C94.6605 83.677 93.845 84.5079 92.839 84.5079H77.6606C76.6547 84.5079 75.8392 83.677 75.8392 82.652V67.1867Z" fill="white"/>
<path d="M75.8392 23.8837C75.8392 22.8588 76.6547 22.0279 77.6606 22.0279H92.839C93.845 22.0279 94.6605 22.8588 94.6605 23.8837V39.3491C94.6605 40.374 93.845 41.2049 92.839 41.2049H77.6606C76.6547 41.2049 75.8392 40.374 75.8392 39.3491V23.8837Z" fill="white"/>
<path d="M54.5894 45.5352C54.5894 44.5103 55.4048 43.6794 56.4108 43.6794H71.5892C72.5952 43.6794 73.4106 44.5103 73.4106 45.5352V61.0006C73.4106 62.0255 72.5952 62.8564 71.5892 62.8564H56.4108C55.4048 62.8564 54.5894 62.0255 54.5894 61.0006V45.5352Z" fill="white"/>
<path d="M33.3395 67.1867C33.3395 66.1617 34.155 65.3309 35.1609 65.3309H50.3394C51.3453 65.3309 52.1608 66.1617 52.1608 67.1867V82.652C52.1608 83.677 51.3453 84.5079 50.3394 84.5079H35.1609C34.155 84.5079 33.3395 83.677 33.3395 82.652V67.1867Z" fill="white"/>
<path d="M54.5894 88.8382C54.5894 87.8132 55.4048 86.9823 56.4108 86.9823H71.5892C72.5952 86.9823 73.4106 87.8132 73.4106 88.8382V104.304C73.4106 105.328 72.5952 106.159 71.5892 106.159H56.4108C55.4048 106.159 54.5894 105.328 54.5894 104.304V88.8382Z" fill="white"/>
<path d="M94.6605 53.2679C94.6605 58.5635 90.4472 62.8564 85.2498 62.8564C80.0525 62.8564 75.8392 58.5635 75.8392 53.2679C75.8392 47.9723 80.0525 43.6794 85.2498 43.6794C90.4472 43.6794 94.6605 47.9723 94.6605 53.2679Z" fill="white"/>
<path d="M94.6605 96.5708C94.6605 101.866 90.4472 106.159 85.2498 106.159C80.0525 106.159 75.8392 101.866 75.8392 96.5708C75.8392 91.2753 80.0525 86.9823 85.2498 86.9823C90.4472 86.9823 94.6605 91.2753 94.6605 96.5708Z" fill="white"/>
<path d="M34.1982 60.7443L50.0879 44.5542C50.8529 43.7748 52.1608 44.3268 52.1608 45.4291V61.6192C52.1608 62.3025 51.6172 62.8564 50.9465 62.8564H35.0568C33.975 62.8564 33.4332 61.5237 34.1982 60.7443Z" fill="white"/>
<path d="M34.1982 89.0944L50.0879 105.285C50.8529 106.064 52.1608 105.512 52.1608 104.41V88.2196C52.1608 87.5363 51.6172 86.9823 50.9465 86.9823H35.0568C33.975 86.9823 33.4332 88.315 34.1982 89.0944Z" fill="white"/>
<defs>
<linearGradient id="paint0_linear_409_922" x1="102.757" y1="128" x2="30.5976" y2="-4.16283e-06" gradientUnits="userSpaceOnUse">
<stop stop-color="#261E72"/>
<stop offset="1" stop-color="#05AA6D"/>
</linearGradient>
</defs>
</svg>
